<svg width="269" height="90" viewBox="0 0 269 90" fill="none" xmlns="http://www.w3.org/2000/svg">
<path d="M106.73 72.7039C102.609 72.7039 99.2665 71.2715 96.7032 68.4067C94.1902 65.5418 92.9337 61.6969 92.9337 56.8719V45.6388C92.9337 40.7635 94.1902 36.8935 96.7032 34.0287C99.2162 31.1638 102.559 29.7314 106.73 29.7314C110.148 29.7314 112.862 30.7115 114.872 32.6716C116.883 34.5815 117.888 37.2202 117.888 40.5876L115.777 38.4013H117.963L117.662 28.5252V16.915H127.086V71.95H117.888V64.034H115.777L117.888 61.8477C117.888 65.2151 116.883 67.8789 114.872 69.8391C112.862 71.749 110.148 72.7039 106.73 72.7039ZM110.047 64.5618C112.46 64.5618 114.319 63.8581 115.626 62.4508C116.983 60.9933 117.662 58.9829 117.662 56.4196V46.0157C117.662 43.4525 116.983 41.4672 115.626 40.0599C114.319 38.6023 112.46 37.8736 110.047 37.8736C107.635 37.8736 105.75 38.5772 104.393 39.9845C103.036 41.3918 102.358 43.4022 102.358 46.0157V56.4196C102.358 59.0331 103.036 61.0435 104.393 62.4508C105.75 63.8581 107.635 64.5618 110.047 64.5618Z" fill="white"/>
<path d="M149.07 72.6285C145.552 72.6285 142.486 71.9751 139.872 70.6684C137.309 69.3114 135.299 67.4266 133.841 65.0141C132.434 62.5513 131.73 59.6614 131.73 56.3442V46.0911C131.73 42.7739 132.434 39.9091 133.841 37.4966C135.299 35.0339 137.309 33.1491 139.872 31.8423C142.486 30.4853 145.552 29.8068 149.07 29.8068C152.639 29.8068 155.704 30.4853 158.268 31.8423C160.831 33.1491 162.816 35.0339 164.224 37.4966C165.681 39.9091 166.41 42.7488 166.41 46.0157V56.3442C166.41 59.6614 165.681 62.5513 164.224 65.0141C162.816 67.4266 160.831 69.3114 158.268 70.6684C155.704 71.9751 152.639 72.6285 149.07 72.6285ZM149.07 64.411C151.583 64.411 153.518 63.7325 154.875 62.3754C156.282 60.9682 156.986 58.9577 156.986 56.3442V46.0911C156.986 43.4273 156.282 41.4169 154.875 40.0599C153.518 38.7029 151.583 38.0243 149.07 38.0243C146.607 38.0243 144.672 38.7029 143.265 40.0599C141.858 41.4169 141.154 43.4273 141.154 46.0911V56.3442C141.154 58.9577 141.858 60.9682 143.265 62.3754C144.672 63.7325 146.607 64.411 149.07 64.411Z" fill="white"/>
<path d="M171.055 71.95V16.915H180.478V30.4853L180.252 38.4013H182.816L180.252 40.5876C180.252 37.1699 181.232 34.5061 183.192 32.5962C185.203 30.6863 187.942 29.7314 191.41 29.7314C195.481 29.7314 198.723 31.0884 201.135 33.8025C203.598 36.5165 204.83 40.1604 204.83 44.7341V71.95H195.406V45.7142C195.406 43.2011 194.752 41.2661 193.446 39.9091C192.139 38.5521 190.304 37.8736 187.942 37.8736C185.63 37.8736 183.796 38.5772 182.439 39.9845C181.132 41.3918 180.478 43.4022 180.478 46.0157V71.95H171.055Z" fill="white"/>
<path d="M222.064 72.7039C217.792 72.7039 214.425 71.5731 211.962 69.3114C209.499 67.0496 208.268 64.0089 208.268 60.1891C208.268 56.118 209.625 52.9768 212.339 50.7653C215.053 48.5539 218.898 47.4481 223.874 47.4481H234.202V43.9048C234.202 41.8944 233.549 40.3363 232.242 39.2306C230.935 38.0746 229.151 37.4966 226.889 37.4966C224.829 37.4966 223.12 37.949 221.763 38.8536C220.406 39.7583 219.602 40.9897 219.35 42.5478H210.153C210.605 38.6275 212.364 35.5113 215.43 33.1994C218.496 30.8874 222.416 29.7314 227.191 29.7314C232.267 29.7314 236.263 31.013 239.178 33.5763C242.143 36.0893 243.626 39.507 243.626 43.8294V71.95H234.504V64.7125H232.996L234.504 62.677C234.504 65.7429 233.373 68.1805 231.111 69.9899C228.85 71.7992 225.834 72.7039 222.064 72.7039ZM225.155 65.6172C227.819 65.6172 229.98 64.9387 231.639 63.5817C233.348 62.2247 234.202 60.4655 234.202 58.3044V53.2532H224.025C222.115 53.2532 220.582 53.8061 219.426 54.9118C218.27 56.0175 217.692 57.4751 217.692 59.2844C217.692 61.2446 218.345 62.8027 219.652 63.9586C221.009 65.0644 222.844 65.6172 225.155 65.6172Z" fill="white"/>
<path d="M261.129 72.7035C258.968 72.7035 257.234 72.0752 255.927 70.8187C254.67 69.5622 254.042 67.8534 254.042 65.6922C254.042 63.531 254.67 61.8221 255.927 60.5656C257.234 59.2588 258.968 58.6055 261.129 58.6055C263.29 58.6055 264.999 59.2588 266.255 60.5656C267.562 61.8221 268.215 63.531 268.215 65.6922C268.215 67.8534 267.562 69.5622 266.255 70.8187C264.999 72.0752 263.29 72.7035 261.129 72.7035Z" fill="#FF851B"/>
<path fill-rule="evenodd" clip-rule="evenodd" d="M0 90H32.4965C59.6615 90 77.8138 72.8632 77.8138 45.0635C77.8138 17.2638 59.6615 0 32.6234 0H0V36.2161C0.0105214 36.2185 0.021042 36.2209 0.031562 36.2234L8.98514 38.2896C9.82675 38.4838 10.4229 39.2332 10.4229 40.0969V49.0906C10.4229 49.9543 9.82675 50.7038 8.98514 50.898L0.031562 52.9642C0.021042 52.9666 0.0105214 52.969 0 52.9715V90ZM53.2526 40.0752C53.2528 32.4839 50.3553 24.8868 44.5616 19.0931C40.3169 14.8484 36.0316 13.4201 32.0999 12.1096L32.0323 12.0871C31.2162 11.8151 30.3202 12.1398 29.868 12.8716C29.4157 13.6034 29.5259 14.5501 30.1342 15.1583C33.2248 18.249 34.6839 20.9374 35.4045 23.3873C36.1383 25.8822 36.1488 28.2478 36.1488 30.8973C36.1488 32.5723 34.8426 34.3823 32.5482 35.9119C30.2972 37.4125 27.6998 38.2235 26.1995 38.2235L15.7095 38.2235L15.7071 38.2235C15.2152 38.2235 14.7431 38.4189 14.3953 38.7668C14.0474 39.1146 13.852 39.5864 13.852 40.0784L13.852 49.072C13.852 50.0965 14.6824 50.9269 15.7068 50.9269L26.1995 50.9269C29.4651 50.9269 34.0406 53.1865 36.3562 57.0208C37.4493 59.1308 37.1251 61.7548 35.3805 63.4994C35.0971 63.7828 34.7697 64.0329 34.3942 64.2687C33.8537 64.608 33.5257 65.2014 33.5257 65.8395L33.5257 71.3689C33.5257 72.3933 34.3561 73.2238 35.3805 73.2238L51.1195 73.2238C51.6114 73.2238 52.0832 73.0283 52.4311 72.6805C52.7789 72.3326 52.9744 71.8608 52.9744 71.3689V65.8395C52.9744 65.2014 52.6463 64.608 52.1058 64.2687C51.7304 64.0329 51.4029 63.7828 51.1195 63.4994C48.9464 61.3264 48.9464 57.803 51.1195 55.63C51.4176 55.3319 51.771 55.0719 52.1923 54.8178C52.7426 54.4859 53.0818 53.8928 53.089 53.2502L53.2525 40.1387L53.2526 40.0752Z" fill="#FF851B"/>
</svg>
