<svg width="391" height="90" viewBox="0 0 391 90" fill="none" xmlns="http://www.w3.org/2000/svg">
<path fill-rule="evenodd" clip-rule="evenodd" d="M51.0887 24.5579L30.6478 12.7568L10.2069 24.5579V35.1904L30.6478 23.3893L51.0887 35.1904V24.5579Z" fill="#E6D3C2"/>
<path fill-rule="evenodd" clip-rule="evenodd" d="M30.6611 27.5849L10.2204 39.3866L10.2202 62.9895L30.6607 74.7908L30.6619 74.7901L19.4282 68.3043L19.4284 44.7013L39.8678 32.9004L30.6611 27.5849Z" fill="#E6D3C2"/>
<path fill-rule="evenodd" clip-rule="evenodd" d="M22.9813 48.6947L22.9814 72.2977L43.4221 84.0993L52.6282 78.7841L32.1879 66.9828L32.1878 43.3798L43.4225 36.8935L43.422 36.8932L22.9813 48.6947Z" fill="#E6D3C2"/>
<path fill-rule="evenodd" clip-rule="evenodd" d="M36.1498 65.0705L56.5906 76.8721L77.0315 65.0705L77.0315 54.4377L56.5906 66.2392L36.1498 54.4377L36.1498 65.0705Z" fill="#E6D3C2"/>
<path fill-rule="evenodd" clip-rule="evenodd" d="M56.4133 61.1329L76.8539 49.3312L76.8541 25.7283L56.4137 13.927L56.4124 13.9277L67.6461 20.4135L67.6459 44.0164L47.2065 55.8174L56.4133 61.1329Z" fill="#E6D3C2"/>
<path fill-rule="evenodd" clip-rule="evenodd" d="M64.0965 41.3053L64.0964 17.7023L43.6556 5.90073L34.4495 11.2159L54.8898 23.0172L54.8899 46.6202L43.6553 53.1065L43.6558 53.1068L64.0965 41.3053Z" fill="#E6D3C2"/>
<path d="M122.992 51.331C122.801 49.9096 122.366 48.6791 121.687 47.6395C121.008 46.5787 120.075 45.7619 118.887 45.1891C117.699 44.5951 116.256 44.2981 114.559 44.2981H110.39V43.4707H114.559C116.256 43.4707 117.699 43.2055 118.887 42.6751C120.075 42.1447 121.008 41.3915 121.687 40.4156C122.366 39.4185 122.801 38.2092 122.992 36.7878H123.851V51.331H122.992ZM133.016 19.8897V32.9372H132.157C131.966 30.6671 131.436 28.6092 130.566 26.7635C129.717 24.9177 128.498 23.4539 126.906 22.3719C125.315 21.2899 123.31 20.7489 120.892 20.7489H112.554V66.7653H118.887V67.6245H98.4564V66.7653H104.185V20.7489H98.4564V19.8897H133.016Z" fill="#E6D3C2"/>
<path d="M136.744 67.6245V66.7653H142.472V20.7489H136.744V19.8897H156.538V20.7489H150.841V66.7653H158.574C160.972 66.7653 162.977 66.447 164.589 65.8106C166.223 65.1741 167.527 64.2618 168.503 63.0738C169.5 61.8857 170.243 60.4643 170.731 58.8095C171.219 57.1546 171.537 55.3195 171.686 53.304H172.545V67.6245H136.744Z" fill="#E6D3C2"/>
<path d="M198.342 68.2609C195.012 68.2609 192.042 67.6351 189.432 66.3834C186.823 65.1317 184.605 63.392 182.781 61.1644C180.956 58.9367 179.567 56.3378 178.612 53.3677C177.679 50.3975 177.212 47.194 177.212 43.7571C177.212 40.3202 177.71 37.1166 178.708 34.1465C179.705 31.1763 181.137 28.5774 183.004 26.3498C184.871 24.1222 187.098 22.3825 189.687 21.1308C192.296 19.8791 195.181 19.2532 198.342 19.2532C201.525 19.2532 204.4 19.8791 206.967 21.1308C209.555 22.3825 211.783 24.1222 213.649 26.3498C215.516 28.5774 216.948 31.1763 217.946 34.1465C218.943 37.1166 219.441 40.3202 219.441 43.7571C219.441 47.194 218.964 50.3975 218.009 53.3677C217.076 56.3378 215.697 58.9473 213.872 61.1962C212.069 63.4238 209.862 65.1635 207.253 66.4152C204.643 67.6457 201.673 68.2609 198.342 68.2609ZM198.342 67.4654C200.782 67.4654 202.755 66.8289 204.262 65.556C205.768 64.283 206.924 62.5434 207.73 60.337C208.558 58.1093 209.12 55.5741 209.417 52.7312C209.714 49.8671 209.862 46.8757 209.862 43.7571C209.862 40.6172 209.682 37.6258 209.322 34.7829C208.961 31.9401 208.356 29.4154 207.508 27.209C206.659 24.9814 205.492 23.2311 204.007 21.9582C202.522 20.6852 200.634 20.0488 198.342 20.0488C196.072 20.0488 194.184 20.6852 192.678 21.9582C191.193 23.2311 190.015 24.9814 189.146 27.209C188.297 29.4154 187.692 31.9401 187.332 34.7829C186.971 37.6258 186.791 40.6172 186.791 43.7571C186.791 46.8757 186.939 49.8671 187.236 52.7312C187.554 55.5741 188.117 58.0987 188.923 60.3051C189.729 62.5115 190.885 64.2618 192.392 65.556C193.919 66.8289 195.903 67.4654 198.342 67.4654Z" fill="#E6D3C2"/>
<path d="M235.373 43.407V42.866H244.697C246.734 42.866 248.441 42.4629 249.821 41.6567C251.221 40.8293 252.281 39.5988 253.003 37.9653C253.724 36.3317 254.085 34.295 254.085 31.8552C254.085 29.4154 253.724 27.3787 253.003 25.7451C252.281 24.0903 251.221 22.8492 249.821 22.0218C248.441 21.1732 246.734 20.7489 244.697 20.7489H223.885V19.8897H245.652C249.046 19.8897 252.027 20.314 254.594 21.1626C257.161 22.0112 259.155 23.316 260.577 25.0769C262.019 26.8377 262.741 29.0972 262.741 31.8552C262.741 34.6132 262.062 36.8408 260.704 38.5381C259.367 40.2353 257.426 41.4764 254.88 42.2614C252.335 43.0251 249.258 43.407 245.652 43.407H235.373ZM223.885 67.6245V66.7653H245.493V67.6245H223.885ZM230.504 67.179V20.3988H238.841V67.179H230.504ZM261.245 68.0382C259.208 68.0382 257.617 67.6987 256.472 67.0198C255.326 66.3409 254.477 65.4181 253.926 64.2512C253.395 63.0844 253.056 61.7902 252.907 60.3688C252.759 58.9261 252.674 57.4411 252.653 55.9135C252.632 54.3648 252.557 52.8691 252.43 51.4265C252.303 49.9838 251.995 48.6897 251.507 47.544C251.04 46.3772 250.255 45.4543 249.152 44.7754C248.049 44.0753 246.521 43.7253 244.57 43.7253H235.373V43.2479H248.134C251.146 43.2479 253.523 43.6828 255.262 44.5527C257.023 45.4013 258.339 46.5257 259.208 47.9259C260.099 49.3261 260.683 50.8643 260.959 52.5403C261.256 54.2163 261.404 55.8923 261.404 57.5683C261.425 59.2444 261.457 60.7825 261.5 62.1827C261.563 63.5829 261.797 64.7073 262.2 65.556C262.603 66.4046 263.356 66.8289 264.459 66.8289C265.117 66.8289 265.732 66.7546 266.305 66.6061C266.878 66.4576 267.387 66.2773 267.832 66.0651L268.119 66.8607C267.61 67.1365 266.75 67.4017 265.541 67.6563C264.332 67.9109 262.9 68.0382 261.245 68.0382Z" fill="#E6D3C2"/>
<path d="M270.687 67.6245V66.7653H277.688V20.7489H270.687V19.8897H293.663V20.7489H286.026V66.7653H293.663V67.6245H270.687Z" fill="#E6D3C2"/>
<path d="M315.954 19.8897C320.876 19.8897 325.098 20.908 328.62 22.9447C332.163 24.9814 334.878 27.803 336.766 31.4097C338.676 34.9951 339.631 39.1109 339.631 43.7571C339.631 47.2364 339.058 50.4399 337.912 53.3677C336.788 56.2742 335.175 58.7988 333.075 60.9416C330.996 63.0631 328.503 64.7074 325.597 65.8742C322.69 67.0411 319.476 67.6245 315.954 67.6245H296.606V66.7653H302.334V20.7489H296.606V19.8897H315.954ZM310.703 66.7653H315.954C318.606 66.7653 320.823 66.15 322.605 64.9195C324.408 63.6678 325.851 61.9706 326.933 59.8278C328.036 57.685 328.821 55.2346 329.288 52.4766C329.776 49.6974 330.02 46.7909 330.02 43.7571C330.02 40.7233 329.744 37.8273 329.193 35.0693C328.662 32.2901 327.835 29.8291 326.71 27.6864C325.586 25.5436 324.133 23.857 322.351 22.6265C320.568 21.3748 318.436 20.7489 315.954 20.7489H310.703V66.7653Z" fill="#E6D3C2"/>
<path d="M355.739 52.5403V51.681H375.374V52.5403H355.739ZM369.487 18.9668L386.067 66.7653H390.84V67.6245H370.378V66.7653H376.424L364.236 29.0548L351.029 66.7653H358.126V67.6245H344.092V66.7653H350.043L366.845 18.9668H369.487Z" fill="#E6D3C2"/>
</svg>
