<svg width="347" height="90" viewBox="0 0 347 90" fill="none" xmlns="http://www.w3.org/2000/svg">
<path d="M135.839 73.1882C130.33 73.1882 125.683 72.4092 121.899 70.851C118.171 69.2929 115.361 67.0948 113.469 64.2568C111.577 61.3631 110.631 57.9686 110.631 54.0732V53.5724H119.646V54.908C119.646 57.1339 120.146 58.9981 121.148 60.5006C122.15 61.9474 123.819 63.0603 126.156 63.8394C128.494 64.5628 131.721 64.9245 135.839 64.9245C139.401 64.9245 142.239 64.6741 144.353 64.1733C146.468 63.6168 147.97 62.7821 148.861 61.6692C149.807 60.5006 150.28 59.0537 150.28 57.3286C150.28 54.8801 149.501 53.0994 147.942 51.9865C146.384 50.8735 143.852 49.9831 140.347 49.3154L126.657 47.0616C123.541 46.4495 120.759 45.5591 118.31 44.3905C115.862 43.1663 113.942 41.5525 112.55 39.5492C111.215 37.4902 110.547 34.9304 110.547 31.8698C110.547 29.8665 110.992 27.891 111.883 25.9433C112.773 23.9956 114.164 22.2427 116.056 20.6846C117.948 19.1265 120.397 17.9022 123.402 17.0119C126.462 16.0658 130.191 15.5928 134.587 15.5928C140.04 15.5928 144.52 16.4276 148.026 18.097C151.532 19.7664 154.119 22.048 155.789 24.9417C157.514 27.7797 158.376 31.0351 158.376 34.7078V35.2087H149.445V34.1235C149.445 31.842 148.944 29.95 147.942 28.4475C146.941 26.8893 145.299 25.7486 143.018 25.0251C140.736 24.2461 137.648 23.8565 133.752 23.8565C130.358 23.8565 127.603 24.1348 125.489 24.6912C123.43 25.2477 121.927 26.0824 120.981 27.1954C120.035 28.2527 119.562 29.6439 119.562 31.369C119.562 32.9271 119.896 34.207 120.564 35.2087C121.232 36.2103 122.261 37.0172 123.652 37.6293C125.043 38.1858 126.824 38.7145 128.994 39.2153L142.6 41.5525C146.329 42.2203 149.417 43.2219 151.866 44.5575C154.37 45.893 156.234 47.5903 157.458 49.6492C158.682 51.7082 159.295 54.1011 159.295 56.8278C159.295 59.6658 158.488 62.3369 156.874 64.8411C155.26 67.3452 152.728 69.3764 149.278 70.9345C145.828 72.437 141.348 73.1882 135.839 73.1882ZM185.561 72.3535H174.376L161.938 30.8681H171.287L178.215 54.4071L180.135 65.0915H180.803L183.891 53.5724L192.572 30.8681H204.091L212.856 53.5724L215.944 65.0915H216.612L218.532 54.4071L225.46 30.8681H234.642L222.038 72.3535H210.853L201.754 48.4806L198.582 38.2971H197.915L194.743 48.4806L185.561 72.3535ZM248.236 72.3535H239.221V30.8681H248.236V72.3535ZM248.236 26.0268H239.221V16.4276H248.236V26.0268ZM276.2 73.1882C269.522 73.1882 264.347 71.9083 260.674 69.3485C257.057 66.7887 255.248 63.116 255.248 58.3303V58.0799H264.263V58.7476C264.263 61.4744 265.154 63.3664 266.934 64.4237C268.771 65.4254 271.859 65.9262 276.2 65.9262C280.262 65.9262 283.017 65.5088 284.463 64.6741C285.966 63.7838 286.717 62.4204 286.717 60.584C286.717 58.8589 286.133 57.6347 284.964 56.9113C283.851 56.1879 281.792 55.6314 278.787 55.2418L267.435 53.7394C263.484 53.2385 260.396 52.1256 258.17 50.4005C255.944 48.6198 254.831 45.9765 254.831 42.4707C254.831 40.0222 255.555 37.8798 257.001 36.0434C258.448 34.1514 260.618 32.6767 263.512 31.6194C266.406 30.5621 269.967 30.0334 274.196 30.0334C278.426 30.0334 282.043 30.5899 285.048 31.7029C288.108 32.8158 290.446 34.4852 292.059 36.7112C293.729 38.9371 294.564 41.6916 294.564 44.9748V45.2253H285.632V44.7244C285.632 43.1106 285.298 41.7473 284.63 40.6343C283.963 39.5214 282.766 38.6866 281.041 38.1302C279.372 37.518 277.007 37.212 273.946 37.212C270.106 37.212 267.435 37.6572 265.933 38.5475C264.43 39.4379 263.679 40.8569 263.679 42.8046C263.679 44.4184 264.236 45.587 265.349 46.3104C266.461 47.0338 268.548 47.6181 271.609 48.0633L281.208 49.3988C286.105 50.011 289.722 51.2074 292.059 52.9881C294.397 54.7688 295.565 57.3843 295.565 60.8344C295.565 63.3942 294.758 65.6201 293.145 67.5122C291.531 69.3485 289.277 70.7676 286.383 71.7692C283.49 72.7152 280.095 73.1882 276.2 73.1882ZM321.685 73.1882C315.008 73.1882 309.832 71.9083 306.16 69.3485C302.543 66.7887 300.734 63.116 300.734 58.3303V58.0799H309.749V58.7476C309.749 61.4744 310.639 63.3664 312.42 64.4237C314.256 65.4254 317.345 65.9262 321.685 65.9262C325.748 65.9262 328.502 65.5088 329.949 64.6741C331.451 63.7838 332.203 62.4204 332.203 60.584C332.203 58.8589 331.618 57.6347 330.45 56.9113C329.337 56.1879 327.278 55.6314 324.273 55.2418L312.921 53.7394C308.97 53.2385 305.881 52.1256 303.655 50.4005C301.43 48.6198 300.317 45.9765 300.317 42.4707C300.317 40.0222 301.04 37.8798 302.487 36.0434C303.934 34.1514 306.104 32.6767 308.998 31.6194C311.891 30.5621 315.453 30.0334 319.682 30.0334C323.911 30.0334 327.528 30.5899 330.533 31.7029C333.594 32.8158 335.931 34.4852 337.545 36.7112C339.214 38.9371 340.049 41.6916 340.049 44.9748V45.2253H331.118V44.7244C331.118 43.1106 330.784 41.7473 330.116 40.6343C329.448 39.5214 328.252 38.6866 326.527 38.1302C324.857 37.518 322.492 37.212 319.432 37.212C315.592 37.212 312.921 37.6572 311.418 38.5475C309.916 39.4379 309.165 40.8569 309.165 42.8046C309.165 44.4184 309.721 45.587 310.834 46.3104C311.947 47.0338 314.034 47.6181 317.094 48.0633L326.694 49.3988C331.591 50.011 335.208 51.2074 337.545 52.9881C339.882 54.7688 341.051 57.3843 341.051 60.8344C341.051 63.3942 340.244 65.6201 338.63 67.5122C337.016 69.3485 334.763 70.7676 331.869 71.7692C328.975 72.7152 325.581 73.1882 321.685 73.1882Z" fill="white"/>
<path d="M54.0305 0H35.3604V35.3602L54.0305 17.6801V0Z" fill="white"/>
<path d="M8.16099e-07 54.0295L0 35.3594L35.3602 35.3594L17.6801 54.0295L8.16099e-07 54.0295Z" fill="#623CE7"/>
<path d="M89.3901 35.3611L89.3901 54.0312L54.03 54.0313L71.7101 35.3611L89.3901 35.3611Z" fill="white"/>
<rect x="35.2856" y="35.2861" width="18.819" height="54.1048" fill="#623CE7"/>
</svg>
